<svg xmlns="http://www.w3.org/2000/svg" fill="currentColor" viewBox="-150 -150 300 300"><path id="dynamicPathWyp" d="M31.573,0 C31.573,3.406 31.034,6.686 30.036,9.759 C29.001,12.945 27.475,15.908 25.545,18.559 C23.596,21.237 21.237,23.596 18.559,25.545 C15.908,27.475 12.945,29.001 9.76,30.036 C6.686,31.033 3.406,31.573 0,31.573 C-3.406,31.573 -6.686,31.033 -9.759,30.036 C-12.944,29.001 -15.908,27.474 -18.559,25.545 C-21.237,23.596 -23.596,21.237 -25.545,18.559 C-27.474,15.908 -29.001,12.945 -30.035,9.759 C-31.033,6.686 -31.573,3.406 -31.573,0 C-31.573,-3.406 -31.033,-6.686 -30.035,-9.759 C-29.001,-12.945 -27.474,-15.908 -25.545,-18.559 C-23.596,-21.237 -21.236,-23.596 -18.559,-25.545 C-15.907,-27.475 -12.944,-29.001 -9.759,-30.036 C-6.686,-31.033 -3.406,-31.573 0,-31.573 C3.406,-31.573 6.686,-31.033 9.76,-30.036 C12.945,-29.001 15.881,-27.494 18.559,-25.545 C21.237,-23.596 23.616,-21.21 25.545,-18.559 C27.475,-15.908 29.038,-12.832 30.036,-9.759 C31.034,-6.686 31.573,-3.406 31.573,0 z"></path></svg>