<svg width="15" height="15" viewBox="0 0 15 15" fill="none" xmlns="http://www.w3.org/2000/svg">
<path d="M5.91667 0.375H1.16667C0.956704 0.375 0.75534 0.458407 0.606874 0.606874C0.458407 0.75534 0.375 0.956704 0.375 1.16667V5.91667C0.375 6.12663 0.458407 6.32799 0.606874 6.47646C0.75534 6.62493 0.956704 6.70833 1.16667 6.70833H5.91667C6.12663 6.70833 6.32799 6.62493 6.47646 6.47646C6.62493 6.32799 6.70833 6.12663 6.70833 5.91667V1.16667C6.70833 0.956704 6.62493 0.75534 6.47646 0.606874C6.32799 0.458407 6.12663 0.375 5.91667 0.375ZM13.8333 8.29167H9.08333C8.87337 8.29167 8.67201 8.37507 8.52354 8.52354C8.37507 8.67201 8.29167 8.87337 8.29167 9.08333V13.8333C8.29167 14.0433 8.37507 14.2447 8.52354 14.3931C8.67201 14.5416 8.87337 14.625 9.08333 14.625H13.8333C14.0433 14.625 14.2447 14.5416 14.3931 14.3931C14.5416 14.2447 14.625 14.0433 14.625 13.8333V9.08333C14.625 8.87337 14.5416 8.67201 14.3931 8.52354C14.2447 8.37507 14.0433 8.29167 13.8333 8.29167ZM11.4583 0.375C9.71192 0.375 8.29167 1.79525 8.29167 3.54167C8.29167 5.28808 9.71192 6.70833 11.4583 6.70833C13.2048 6.70833 14.625 5.28808 14.625 3.54167C14.625 1.79525 13.2048 0.375 11.4583 0.375ZM3.54167 8.29167C1.79525 8.29167 0.375 9.71192 0.375 11.4583C0.375 13.2048 1.79525 14.625 3.54167 14.625C5.28808 14.625 6.70833 13.2048 6.70833 11.4583C6.70833 9.71192 5.28808 8.29167 3.54167 8.29167Z" fill="white"/>
</svg>
