<svg width="24" height="25" viewBox="0 0 24 25" fill="none" xmlns="http://www.w3.org/2000/svg">
<path d="M0.668458 12.9801C0.668458 9.80541 0.66718 6.63137 0.669097 3.4567C0.669097 2.64161 1.00639 2.11037 1.66821 1.8994C1.84644 1.84251 2.04511 1.83292 2.23484 1.83228C5.69467 1.82844 9.15387 1.82844 12.6137 1.83036C13.073 1.83036 13.2672 1.99146 13.2551 2.34115C13.2449 2.61796 13.0653 2.73942 12.8226 2.78992C12.7408 2.80655 12.6527 2.79312 12.5677 2.79312C9.18262 2.79312 5.79752 2.79312 2.41243 2.79312C1.76211 2.79312 1.62349 2.92929 1.62349 3.56665C1.62349 9.84121 1.62349 16.1151 1.62349 22.3897C1.62349 23.0315 1.76147 23.167 2.41243 23.167C8.68242 23.167 14.9518 23.167 21.2218 23.167C21.8555 23.167 21.9826 23.0385 21.9826 22.3999C21.9826 19.0654 21.9826 15.7316 21.9832 12.3971C21.9832 12.2481 21.9769 12.0966 22.0011 11.9508C22.0446 11.6887 22.2062 11.5366 22.4777 11.5327C22.7345 11.5289 22.9319 11.7264 22.951 11.9892C22.9536 12.0212 22.9517 12.0531 22.9517 12.0851C22.9517 15.6325 22.953 19.1798 22.9504 22.7272C22.9504 23.4726 22.3052 24.1202 21.5514 24.124C20.0189 24.1317 18.4857 24.1272 16.9526 24.1272C12.056 24.1272 7.15948 24.1132 2.26295 24.1407C1.37627 24.1458 0.648016 23.472 0.65632 22.5361C0.686345 19.3512 0.667819 16.1656 0.667819 12.9807L0.668458 12.9801Z" fill="white"/>
<path d="M9.85695 17.3246C9.25007 17.3246 8.6432 17.3258 8.03632 17.3246C7.5949 17.3233 7.45116 17.1814 7.44988 16.7319C7.44669 15.5601 7.45947 14.3883 7.44158 13.2165C7.43647 12.9007 7.54379 12.677 7.75843 12.4641C8.84378 11.3869 9.92275 10.3033 11.003 9.22102C13.7014 6.51813 16.3991 3.81525 19.0981 1.11236C19.4232 0.786331 19.6737 0.772267 19.9975 1.09574C21.2349 2.3302 22.4678 3.56977 23.6969 4.81317C24.0131 5.13281 24.01 5.32715 23.6988 5.63784C21.7211 7.61642 19.7388 9.58988 17.7617 11.5691C15.9787 13.354 14.1958 15.1382 12.4256 16.9352C12.1535 17.2114 11.882 17.3572 11.4847 17.3329C10.9436 17.3003 10.3993 17.3246 9.85631 17.3246H9.85695ZM8.40236 16.3701C9.3887 16.3701 10.3137 16.3599 11.2387 16.3765C11.5192 16.3816 11.714 16.2902 11.9063 16.0946C12.9412 15.0436 13.9869 14.0041 15.0295 12.9602C16.5569 11.431 18.0817 9.8993 19.6142 8.37589C19.7989 8.19241 19.8084 8.07543 19.6142 7.8862C18.7097 7.00207 17.8096 6.11283 16.9312 5.20249C16.7012 4.96404 16.5907 4.98322 16.3697 5.20505C13.7748 7.81204 11.1678 10.4069 8.57165 13.0126C8.47455 13.1098 8.4145 13.2843 8.40939 13.4249C8.39086 13.9677 8.40172 14.5111 8.40172 15.0545C8.40172 15.4777 8.40172 15.9009 8.40172 16.3701H8.40236ZM20.5431 7.41313C20.5916 7.37285 20.6319 7.34345 20.667 7.30893C21.3154 6.65942 21.9581 6.00415 22.6135 5.36167C22.7528 5.22487 22.6863 5.15199 22.5892 5.05418C21.6438 4.10804 20.6977 3.16318 19.7573 2.21257C19.6072 2.06106 19.4941 2.08216 19.3568 2.22088C18.7486 2.83203 18.1386 3.44127 17.5253 4.04731C17.3835 4.18795 17.3784 4.3043 17.5247 4.45006C18.4644 5.3866 19.3983 6.32827 20.3361 7.26609C20.3923 7.32235 20.4671 7.36007 20.5437 7.41377L20.5431 7.41313Z" fill="white"/>
</svg>
