<svg width="34" height="19" viewBox="0 0 34 19" fill="none" xmlns="http://www.w3.org/2000/svg">
<g clip-path="url(#clip0_7571_941)">
<path d="M0.292969 9.30473C1.93146 6.56009 4.12825 4.33566 6.92629 2.67931C9.48065 1.16745 12.2525 0.287794 15.2382 0.0602032C22.5494 -0.497033 29.3666 2.9087 33.1207 8.97238C33.3475 9.33905 33.3531 9.64612 33.1207 10.0101C30.0967 14.7452 25.7797 17.7057 20.1182 18.7046C12.3123 20.0828 4.48676 16.556 0.458218 9.94235C0.404069 9.85384 0.348052 9.76714 0.292969 9.67863C0.292969 9.554 0.292969 9.42937 0.292969 9.30383V9.30473ZM16.5481 1.27402C15.7331 1.36795 14.6454 1.42846 13.5848 1.62534C8.58532 2.55467 4.7239 5.13133 1.93893 9.24242C1.81569 9.42395 1.81289 9.54858 1.93426 9.73643C5.59776 15.3838 12.3963 18.4517 19.2836 17.479C24.6061 16.7276 28.7103 14.0896 31.6661 9.7545C31.7977 9.56122 31.8033 9.42937 31.6689 9.23339C28.1426 4.09362 23.159 1.51516 16.5481 1.27402Z" fill="white"/>
<path d="M22.9953 9.47937C23.0028 12.7749 20.2113 15.478 16.8054 15.4762C13.4118 15.4744 10.6287 12.7867 10.6231 9.50375C10.6175 6.20639 13.4043 3.50601 16.8129 3.50781C20.2075 3.50962 22.9888 6.19555 22.9953 9.47937ZM21.6135 9.47937C21.6014 6.91265 19.4494 4.83814 16.8036 4.84356C14.1409 4.84807 11.9805 6.95419 12.0039 9.52001C12.0272 12.0894 14.1904 14.1603 16.8297 14.1414C19.4858 14.1215 21.6257 12.0371 21.6135 9.48027V9.47937Z" fill="white"/>
</g>
<defs>
<clipPath id="clip0_7571_941">
<rect width="33.0004" height="19.0002" fill="white" transform="translate(0.292969)"/>
</clipPath>
</defs>
</svg>
