<svg width="17" height="18" viewBox="0 0 17 18" fill="none" xmlns="http://www.w3.org/2000/svg">
<path d="M8.9375 0.9375C9.24815 0.9375 9.5 1.18934 9.5 1.5V3C9.5 3.31066 9.24815 3.5625 8.9375 3.5625C8.62685 3.5625 8.375 3.31066 8.375 3V1.5C8.375 1.18934 8.62685 0.9375 8.9375 0.9375Z" fill="#1B1B1B"/>
<path d="M9.5 15C9.5 14.6894 9.24815 14.4375 8.9375 14.4375C8.62685 14.4375 8.375 14.6894 8.375 15V16.5C8.375 16.8107 8.62685 17.0625 8.9375 17.0625C9.24815 17.0625 9.5 16.8107 9.5 16.5V15Z" fill="#1B1B1B"/>
<path d="M0.875 9C0.875 8.68935 1.12684 8.4375 1.4375 8.4375H2.9375C3.24816 8.4375 3.5 8.68935 3.5 9C3.5 9.31065 3.24816 9.5625 2.9375 9.5625H1.4375C1.12684 9.5625 0.875 9.31065 0.875 9Z" fill="#1B1B1B"/>
<path d="M14.9375 8.4375C14.6269 8.4375 14.375 8.68935 14.375 9C14.375 9.31065 14.6269 9.5625 14.9375 9.5625H16.4375C16.7482 9.5625 17 9.31065 17 9C17 8.68935 16.7482 8.4375 16.4375 8.4375H14.9375Z" fill="#1B1B1B"/>
<path d="M4.03975 13.8972C3.82008 13.6775 3.82008 13.3214 4.03975 13.1018L4.29704 12.8444C4.51671 12.6248 4.87286 12.6248 5.09253 12.8444C5.3122 13.0641 5.3122 13.4203 5.09253 13.64L4.83525 13.8972C4.61558 14.1169 4.25942 14.1169 4.03975 13.8972Z" fill="#1B1B1B"/>
<path d="M12.7819 4.3597C12.5623 4.57936 12.5623 4.93552 12.7819 5.15519C13.0016 5.37486 13.3578 5.37486 13.5775 5.15519L13.8349 4.89775C14.0545 4.67808 14.0545 4.32192 13.8349 4.10225C13.6152 3.88258 13.2591 3.88258 13.0394 4.10225L12.7819 4.3597Z" fill="#1B1B1B"/>
<path d="M13.8347 13.8972C14.0544 13.6775 14.0544 13.3214 13.8347 13.1018L13.5775 12.8444C13.3578 12.6248 13.0016 12.6248 12.7819 12.8444C12.5623 13.0641 12.5623 13.4203 12.7819 13.64L13.0393 13.8972C13.2589 14.1169 13.615 14.1169 13.8347 13.8972Z" fill="#1B1B1B"/>
<path d="M5.09269 4.3597C5.31236 4.57936 5.31236 4.93552 5.09269 5.15519C4.87302 5.37486 4.51686 5.37486 4.2972 5.15519L4.03975 4.89775C3.82008 4.67808 3.82008 4.32192 4.03975 4.10225C4.25942 3.88258 4.61558 3.88258 4.83525 4.10225L5.09269 4.3597Z" fill="#1B1B1B"/>
</svg>
