<svg width="40" height="40" viewBox="0 0 40 40" fill="none" xmlns="http://www.w3.org/2000/svg">
<path d="M19.9987 36.6663C29.2034 36.6663 36.6654 29.2044 36.6654 19.9997C36.6654 10.7949 29.2034 3.33301 19.9987 3.33301C10.794 3.33301 3.33203 10.7949 3.33203 19.9997C3.33203 29.2044 10.794 36.6663 19.9987 36.6663Z" stroke="black" stroke-width="2.5"/>
<path d="M16.875 14.792C16.875 13.0661 18.2742 11.667 20 11.667C21.7258 11.667 23.125 13.0661 23.125 14.792C23.125 15.9377 22.5083 16.9395 21.589 17.4835C20.7967 17.9522 20 18.6632 20 19.5837V21.667" stroke="black" stroke-width="2.5" stroke-linecap="round"/>
<path d="M19.9987 28.3333C20.9192 28.3333 21.6654 27.5871 21.6654 26.6667C21.6654 25.7462 20.9192 25 19.9987 25C19.0782 25 18.332 25.7462 18.332 26.6667C18.332 27.5871 19.0782 28.3333 19.9987 28.3333Z" fill="black"/>
</svg>
