<svg width="37" height="37" viewBox="0 0 37 37" fill="none" xmlns="http://www.w3.org/2000/svg">
<g clip-path="url(#clip0_1219_649)">
<path fill-rule="evenodd" clip-rule="evenodd" d="M10.7123 0.223984C7.74133 0.358032 5.1663 1.08439 3.08702 3.15489C1.00047 5.23628 0.283137 7.82151 0.148755 10.7615C0.0652197 12.5966 -0.423249 26.4597 0.993207 30.0954C1.94841 32.5481 3.8297 34.434 6.30487 35.3922C7.45982 35.8415 8.77825 36.1456 10.7123 36.2343C26.8835 36.9662 32.8779 36.5677 35.4058 30.0954C35.8543 28.9433 36.163 27.626 36.2484 25.6968C36.9875 9.48411 36.1286 5.96992 33.3102 3.15489C31.0747 0.92497 28.4452 -0.592988 10.7123 0.223984ZM10.8611 32.9737C9.09056 32.894 8.12993 32.599 7.48889 32.3508C5.87631 31.724 4.66507 30.5178 4.04219 28.9146C2.9635 26.1521 3.32127 13.0316 3.41751 10.9086C3.51194 8.82899 3.93324 6.92841 5.40054 5.46112C7.21651 3.64964 9.56272 2.76185 25.5378 3.48283C27.6225 3.57702 29.5275 3.99745 30.9984 5.46112C32.8144 7.27259 33.7151 9.63685 32.9815 25.5506C32.9016 27.3168 32.6056 28.2752 32.3568 28.9146C30.7133 33.1263 26.9324 33.711 10.8611 32.9737ZM25.714 8.55867C25.714 9.75788 26.6892 10.733 27.8931 10.733C29.0971 10.733 30.0741 9.75788 30.0741 8.55867C30.0741 7.35949 29.0971 6.38522 27.8931 6.38522C26.6892 6.38522 25.714 7.35949 25.714 8.55867ZM8.87448 18.2283C8.87448 23.3656 13.0494 27.5307 18.1995 27.5307C23.3496 27.5307 27.5245 23.3656 27.5245 18.2283C27.5245 13.0909 23.3496 8.92849 18.1995 8.92849C13.0494 8.92849 8.87448 13.0909 8.87448 18.2283ZM12.1469 18.2283C12.1469 14.8952 14.8563 12.1909 18.1995 12.1909C21.5427 12.1909 24.2521 14.8952 24.2521 18.2283C24.2521 21.5632 21.5427 24.2683 18.1995 24.2683C14.8563 24.2683 12.1469 21.5632 12.1469 18.2283Z" fill="#1B1B1B"/>
</g>
<defs>
<clipPath id="clip0_1219_649">
<rect width="36.5005" height="36.5005" fill="#1B1B1B"/>
</clipPath>
</defs>
</svg>
