<svg class="social_icons" viewBox="0 0 16 16" fill="#1B1B1B" xmlns="http://www.w3.org/2000/svg"><g clip-path="url(#clip0_2579_2434)"><path d="M15.9543 4.70286C15.94 4.03714 15.8143 3.38 15.5829 2.76C15.1657 1.68571 14.3171 0.834286 13.24 0.42C12.62 0.188571 11.9629 0.0628571 11.2971 0.0485714C10.4457 0.00857143 10.1714 0 8 0C5.82857 0 5.55714 0.00857143 4.70286 0.0485714C4.04 0.06 3.38286 0.185714 2.76 0.42C1.68571 0.834286 0.837143 1.68571 0.42 2.76C0.188571 3.38286 0.0628571 4.04 0.0485714 4.70286C0.0114286 5.55429 0 5.82857 0 8C0 10.1714 0.0114286 10.4457 0.0485714 11.2971C0.0628571 11.9629 0.188571 12.62 0.42 13.24C0.837143 14.3143 1.68571 15.1657 2.76 15.58C3.38286 15.8143 4.04 15.94 4.70286 15.9514C5.55714 15.9914 5.82857 16 8 16C10.1714 16 10.4457 15.9914 11.3 15.9514C11.9629 15.94 12.62 15.8143 13.2429 15.58C14.3171 15.1657 15.1657 14.3143 15.5829 13.24C15.8143 12.62 15.94 11.9629 15.9543 11.2971C15.9914 10.4457 16 10.1714 16 8C16 5.82857 15.9914 5.55429 15.9543 4.70286ZM8 12.1086C5.73143 12.1086 3.89429 10.2686 3.89429 8C3.89429 5.73143 5.73143 3.89143 8 3.89143C9.13429 3.89143 10.16 4.35143 10.9057 5.09429C11.6486 5.84 12.1086 6.86571 12.1086 8C12.1086 10.2686 10.2686 12.1086 8 12.1086ZM12.2714 4.68857C11.74 4.68857 11.3114 4.26 11.3114 3.72857C11.3114 3.19714 11.74 2.76857 12.2714 2.76857C12.8029 2.76857 13.2314 3.2 13.2314 3.72857C13.2314 4.25714 12.8029 4.68857 12.2714 4.68857Z" fill="#1B1B1B"></path><path d="M10.6683 7.9997C10.6683 9.47113 9.47398 10.6654 8.00256 10.6654H7.9997C6.52827 10.6654 5.33398 9.47113 5.33398 7.9997C5.33398 6.52827 6.52827 5.33398 7.9997 5.33398C9.47113 5.33398 10.6683 6.52827 10.6683 7.9997Z" fill="#1B1B1B"></path></g><defs><clipPath id="clip0_2579_2434"><rect width="16" height="16" fill="#1B1B1B"></rect></clipPath></defs></svg>