<svg width="37" height="37" viewBox="0 0 37 37" fill="none" xmlns="http://www.w3.org/2000/svg">
<g clip-path="url(#clip0_1219_654)">
<path d="M0.499023 0V36.5005H36.9995V0H0.499023ZM34.8608 34.3618H2.63772V2.1387H34.8608V34.3618Z" fill="white"/>
<path d="M13.6453 14.5005H10.0879V25.8855H13.6453V14.5005Z" fill="white"/>
<path d="M19.8109 25.8855V19.7332C19.8109 19.3839 19.7966 19.0417 19.8964 18.7993C20.1673 18.1149 20.759 17.402 21.8213 17.402C23.2114 17.402 23.8388 18.4571 23.8388 19.9969V25.8855H27.8738V19.5549C27.8738 16.0332 25.8919 14.3936 23.3611 14.3936C21.3222 14.3936 20.0461 15.5057 19.8109 16.2899V14.5005H15.8115C15.8614 15.4486 15.8115 25.8855 15.8115 25.8855H19.8109Z" fill="white"/>
<path d="M11.7416 13.0745H11.7701C13.1104 13.0745 13.9445 12.1976 13.9374 11.0997C13.9088 9.97335 13.1033 9.125 11.7915 9.125C10.4798 9.125 9.61719 9.97335 9.61719 11.0997C9.61719 12.2047 10.4513 13.0745 11.7416 13.0745Z" fill="white"/>
</g>
<defs>
<clipPath id="clip0_1219_654">
<rect width="36.5005" height="36.5005" fill="white" transform="translate(0.5)"/>
</clipPath>
</defs>
</svg>
