<svg class="quote_mark_lottie" viewBox="0 0 82 58" fill="none" xmlns="http://www.w3.org/2000/svg" style="translate: none; rotate: none; scale: none; opacity: 1; height: 3rem; width: 3rem; transform: translate(0px, 0rem);"><path d="M64.8686 21.6017C64.7034 19.8163 64.8298 14.9627 69.4793 8.21364C69.831 7.70434 69.7672 7.01746 69.3304 6.58081C67.4348 4.6852 66.2612 3.48903 65.438 2.65199C64.3556 1.54832 63.8614 1.04543 63.1381 0.389684C62.6552 -0.0444041 61.9245 -0.0519629 61.4365 0.37354C53.3323 7.42541 44.331 21.9971 45.6336 39.8495C46.3968 50.3322 54.043 57.9409 63.8138 57.9409C73.841 57.9409 81.999 49.7842 81.999 39.7569C81.999 30.0837 74.4067 22.1509 64.8686 21.6017ZM63.8138 55.3784C55.4231 55.3784 48.8529 48.7694 48.1886 39.6644C46.7234 19.586 58.6587 6.54327 62.2648 3.08992C62.6164 3.4365 63.0181 3.84432 63.6099 4.4474C64.323 5.1731 65.2991 6.16658 66.7755 7.64809C61.1312 16.3441 62.196 22.5401 62.6626 23.4285C62.8842 23.8501 63.3384 24.1342 63.8138 24.1342C72.4285 24.1342 79.4365 31.1422 79.4365 39.7569C79.4365 48.3703 72.4285 55.3784 63.8138 55.3784Z" fill="#B55A30"></path><path d="M19.3641 21.6017C19.1976 19.8213 19.3202 14.9715 23.9748 8.21368C24.3252 7.70439 24.2625 7.01751 23.8259 6.58086C21.934 4.68896 20.7616 3.49407 19.9396 2.65703C18.8536 1.55093 18.358 1.04663 17.6349 0.38973C17.1519 -0.0443577 16.4212 -0.0506359 15.9333 0.372305C7.8291 7.42418 -1.17348 21.9934 0.126476 39.8495C0.892279 50.3309 8.53968 57.9409 18.3105 57.9409C28.3378 57.9409 36.4958 49.7842 36.4958 39.7569C36.4958 30.0826 28.9034 22.1486 19.3641 21.6017ZM18.3105 55.3784C9.92112 55.3784 3.34715 48.7695 2.68154 39.6631C1.22015 19.5798 13.1555 6.54204 16.7615 3.08996C17.1143 3.43654 17.5173 3.84693 18.1104 4.45129C18.8222 5.17699 19.797 6.16919 21.2709 7.64814C15.6267 16.3454 16.6915 22.5401 17.1581 23.4272C17.3797 23.8489 17.835 24.1342 18.3105 24.1342C26.9252 24.1342 33.9333 31.1423 33.9333 39.7569C33.9333 48.3704 26.9252 55.3784 18.3105 55.3784Z" fill="#B55A30"></path></svg>