<svg xmlns="http://www.w3.org/2000/svg" fill="currentColor" viewBox="-150 -150 300 300"><path id="dynamicPathWyp" d="M141.14,0 C141.14,11.556 72.941,12.18 69.555,22.608 C66.046,33.415 120.722,73.99 114.175,82.985 C107.563,92.071 52.038,52.557 42.953,59.169 C33.957,65.716 54.425,130.752 43.618,134.261 C33.19,137.647 11.557,73.108 0,73.108 C-11.556,73.108 -33.19,137.647 -43.618,134.261 C-54.425,130.752 -33.957,65.715 -42.953,59.169 C-52.038,52.557 -107.563,92.07 -114.176,82.984 C-120.722,73.989 -66.046,33.414 -69.555,22.607 C-72.941,12.18 -141.139,11.556 -141.139,0 C-141.139,-11.556 -72.941,-12.18 -69.555,-22.608 C-66.046,-33.415 -120.721,-73.99 -114.175,-82.985 C-107.562,-92.071 -52.037,-52.557 -42.952,-59.169 C-33.957,-65.716 -54.424,-130.752 -43.617,-134.261 C-33.189,-137.647 -11.556,-73.108 0,-73.108 C11.557,-73.108 33.191,-137.647 43.618,-134.261 C54.426,-130.752 33.958,-65.715 42.953,-59.169 C52.039,-52.557 107.564,-92.07 114.176,-82.984 C120.723,-73.989 66.047,-33.414 69.556,-22.607 C72.941,-12.18 141.14,-11.556 141.14,0 z"></path></svg>