<svg width="32" height="32" viewBox="0 0 32 32" fill="none" xmlns="http://www.w3.org/2000/svg">
<path d="M30.3333 15.2827L16.938 27.9162C15.297 29.4638 13.0712 30.3333 10.7505 30.3333C8.4297 30.3333 6.20398 29.4638 4.56295 27.9162C2.92192 26.3685 2 24.2693 2 22.0805C2 19.8918 2.92192 17.7927 4.56295 16.245L17.9583 3.61145C19.0523 2.57965 20.5362 2 22.0833 2C23.6305 2 25.1143 2.57965 26.2083 3.61145C27.3023 4.64325 27.917 6.04267 27.917 7.50185C27.917 8.96103 27.3023 10.3605 26.2083 11.3923L12.7984 24.0257C12.2514 24.5417 11.5095 24.8315 10.7359 24.8315C9.9623 24.8315 9.2204 24.5417 8.67338 24.0257C8.12638 23.5098 7.81907 22.8102 7.81907 22.0805C7.81907 21.351 8.12638 20.6512 8.67338 20.1353L21.0483 8.4779" stroke="black" stroke-width="2.5" stroke-linecap="round" stroke-linejoin="round"/>
</svg>
