<svg width="28" height="28" viewBox="0 0 28 28" fill="none" xmlns="http://www.w3.org/2000/svg">
<g clip-path="url(#clip0_2338_329)">
<path fill-rule="evenodd" clip-rule="evenodd" d="M13.5707 0C6.08724 0 0 6.08894 0 13.5745C0 16.5432 0.957374 19.2964 2.58484 21.531L0.893431 26.5745L6.1111 24.9069C8.25711 26.3274 10.8181 27.1493 13.5786 27.1493C21.062 27.1493 27.1493 21.0601 27.1493 13.5747C27.1493 6.08918 21.062 0.000224393 13.5786 0.000224393L13.5707 0ZM9.781 6.89525C9.51778 6.26484 9.31829 6.24098 8.91953 6.22476C8.78376 6.21688 8.63245 6.209 8.46471 6.209C7.94593 6.209 7.40353 6.36057 7.07637 6.69571C6.67761 7.10269 5.68823 8.05223 5.68823 9.99952C5.68823 11.9468 7.10834 13.8301 7.29972 14.0936C7.49922 14.3567 10.0683 18.4108 14.0572 20.063C17.1766 21.3558 18.1023 21.236 18.8122 21.0844C19.8493 20.861 21.1498 20.0945 21.477 19.1691C21.8042 18.2432 21.8042 17.4531 21.7082 17.2855C21.6125 17.118 21.3491 17.0225 20.9503 16.8227C20.5516 16.6232 18.6127 15.6655 18.2457 15.5378C17.8866 15.4022 17.5437 15.4502 17.2726 15.8333C16.8896 16.368 16.5147 16.9108 16.2114 17.2378C15.972 17.4932 15.5809 17.5252 15.254 17.3894C14.8151 17.206 13.5867 16.7747 12.0707 15.4261C10.8978 14.3808 10.1001 13.0801 9.86882 12.6892C9.63736 12.2903 9.84493 12.0585 10.0282 11.8432C10.2277 11.5957 10.4191 11.4202 10.6186 11.1887C10.8181 10.9574 10.9298 10.8376 11.0575 10.5662C11.1932 10.3029 11.0973 10.0315 11.0016 9.83195C10.9059 9.6324 10.1082 7.68511 9.781 6.89525Z" fill="#67C15E"/>
</g>
<defs>
<clipPath id="clip0_2338_329">
<rect width="27.1493" height="27.1493" fill="white"/>
</clipPath>
</defs>
</svg>
