  <svg
            className="w-[1rem] h-[1rem] flex justify-center items-center"
            viewBox="0 0 16 12"
            fill="currentColor"
            xmlns="http://www.w3.org/2000/svg"
          >
            <path
              d="M15.8333 2.79954C15.8333 2.79954 15.6667 1.69954 15.2 1.19954C14.6 0.566211 13.9 0.566211 13.6 0.532878C11.3667 0.366211 8 0.366211 8 0.366211C8 0.366211 4.63333 0.366211 2.4 0.532878C2.1 0.566211 1.4 0.566211 0.8 1.19954C0.333333 1.69954 0.166667 2.79954 0.166667 2.79954C0.166667 2.79954 0 4.09954 0 5.39954V6.59954C0 7.89954 0.166667 9.19954 0.166667 9.19954C0.166667 9.19954 0.333333 10.2995 0.8 10.7995C1.4 11.4329 2.2 11.4329 2.56667 11.4995C3.83333 11.6329 8 11.6662 8 11.6662C8 11.6662 11.3667 11.6662 13.6 11.4995C13.9 11.4662 14.6 11.4662 15.2 10.8329C15.6667 10.3329 15.8333 9.23288 15.8333 9.23288C15.8333 9.23288 16 7.93288 16 6.63288V5.43288C16 4.09954 15.8333 2.79954 15.8333 2.79954ZM6.33333 8.06621V3.56621L10.6667 5.83288L6.33333 8.06621Z"
              fill="currentColor"
            />
          </svg>