<svg viewBox="0 0 185 185" fill="none" xmlns="http://www.w3.org/2000/svg">
  <!-- White background -->
  <rect width="185" height="185" fill="white"/>
  
  <!-- Original logo centered with padding -->
  <g transform="translate(25, 25) scale(0.75)">
    <path
      d="M143.12 86.41C151.43 82.83 158.56 76.97 163.7 69.53C168.17 62.93 170.53 55.15 170.53 47.18C170.43 38.54 167.72 30.12 162.78 23.05C157.67 15.18 150.24 9.1 141.5 5.67C132.41 1.9 120.42 0.01 105.52 0.01H31.96V153.71H57.98V99.38L103.12 99.53C115.58 99.53 125.12 100.57 131.75 102.68C144.56 106.18 153.35 117.98 153.03 131.26C153.13 136.72 151.79 142.11 149.13 146.88C146.77 151.08 143.34 154.58 139.2 157.01C134.58 159.57 129.54 161.23 124.3 161.98C121.12 162.45 117.92 162.7 114.72 162.75H24.51V0H0V184.56H111.96C111.96 184.56 117.15 184.58 123.43 184.16C128.47 183.79 133.46 182.97 138.33 181.68C146.03 180.02 153.33 176.89 159.86 172.52C165.94 168 170.86 162.09 174.19 155.29C178.11 147.84 180.12 139.52 180.07 131.11C180.27 120.96 176.84 111.05 170.44 103.15C163.36 94.81 153.78 88.92 143.13 86.41H143.12ZM125.22 75.43C117.08 77.19 108.73 77.91 100.39 77.59H57.98V21.8H97.24C111.32 21.8 121.25 22.67 127.04 24.43C132.5 25.89 137.27 29.3 140.42 33.99C143.57 38.78 145.21 44.39 145.08 50.13C145.33 55.92 143.59 61.6 140.12 66.24C136.3 70.86 131.06 74.09 125.22 75.43Z"
      fill="#1B1B1B"
    />
  </g>
</svg>