<svg width="185" height="71" viewBox="0 0 185 71" fill="none" xmlns="http://www.w3.org/2000/svg">
<g clip-path="url(#clip0_26_602)">
<path d="M101.762 14.3954C103.147 13.7998 104.335 12.8235 105.191 11.5825C105.936 10.4822 106.329 9.18743 106.329 7.85957C106.312 6.42003 105.861 5.01772 105.038 3.83878C104.186 2.52747 102.949 1.514 101.493 0.943149C99.9788 0.314383 97.9808 0 95.4989 0H83.2421V25.6057H87.5772V16.5547L95.0976 16.5796C97.1742 16.5796 98.7626 16.7533 99.8671 17.1049C102.002 17.6882 103.466 19.6531 103.412 21.8662C103.429 22.7762 103.205 23.6739 102.763 24.4681C102.37 25.1672 101.799 25.7504 101.108 26.1558C100.339 26.5819 99.499 26.8591 98.6261 26.9832C98.0967 27.0618 97.563 27.1031 97.0294 27.1114H82.0011V0H77.9182V30.7475H96.5702C96.5702 30.7475 97.4348 30.7516 98.4814 30.6813C99.3211 30.6192 100.153 30.4827 100.963 30.2676C102.246 29.9905 103.462 29.4693 104.55 28.7412C105.563 27.9884 106.382 27.0038 106.937 25.8704C107.59 24.6294 107.925 23.2437 107.917 21.8413C107.95 20.1495 107.379 18.499 106.312 17.1835C105.133 15.7936 103.536 14.8132 101.762 14.3954ZM98.7792 12.567C97.4224 12.8607 96.0325 12.9807 94.6426 12.9269H87.5772V3.63195H94.1172C96.4627 3.63195 98.1173 3.77673 99.0812 4.07043C99.9912 4.31449 100.785 4.88121 101.311 5.66303C101.836 6.4614 102.109 7.39627 102.088 8.35183C102.13 9.31566 101.84 10.2629 101.261 11.0365C100.624 11.8059 99.7513 12.3437 98.7792 12.567ZM2.6442 42.3921H0.563477V64.2499H14.8969V62.4753H2.6442V42.3921ZM28.6925 61.466V53.0728C28.7132 52.1793 28.5229 51.2899 28.134 50.4833C27.8238 49.8628 27.3605 49.3333 26.7896 48.9403C26.2229 48.568 25.59 48.3116 24.924 48.1875C24.2415 48.0551 23.5507 47.9889 22.8557 47.9889C22.0077 47.9806 21.1638 48.0799 20.3448 48.295C19.6291 48.4812 18.959 48.8038 18.3675 49.2464C17.8008 49.6849 17.3416 50.2516 17.0355 50.9011V50.9135C16.688 51.6622 16.4936 52.473 16.4564 53.3003H18.4171C18.4461 52.0014 18.8473 51.0583 19.625 50.4791C20.502 49.8669 21.5568 49.5608 22.6241 49.6105C23.166 49.6063 23.7037 49.6518 24.2373 49.747C24.7048 49.8256 25.1515 49.9952 25.5528 50.2475C25.9292 50.4957 26.2312 50.8349 26.438 51.232C26.6697 51.7367 26.7814 52.291 26.7607 52.8453C26.769 53.201 26.7028 53.5568 26.5745 53.8919C26.4753 54.1401 26.3139 54.3593 26.0988 54.5206C25.8713 54.682 25.6107 54.7936 25.3335 54.8433C25.0274 54.9053 24.6758 54.955 24.2622 54.9963C23.2032 55.1163 22.1939 55.2487 21.1887 55.381C20.2538 55.4927 19.3354 55.7244 18.4585 56.0677C17.6891 56.3656 17.0148 56.8578 16.4977 57.499C15.96 58.256 15.6911 59.1702 15.7407 60.0968C15.7242 60.8083 15.8648 61.5156 16.1544 62.1651C16.415 62.7235 16.7997 63.2158 17.2837 63.6005C17.7884 63.9811 18.3592 64.2541 18.9714 64.4071C19.6457 64.585 20.3406 64.6719 21.0397 64.6719C21.7181 64.6802 22.3965 64.6098 23.0584 64.4526C23.5838 64.3244 24.0884 64.1176 24.5559 63.8404C25.0192 63.5757 25.437 63.2406 25.7968 62.8435C26.1816 62.4174 26.5373 61.9624 26.8558 61.4826H26.9179C26.9179 61.859 26.9427 62.2313 26.9965 62.6036C27.0337 62.9138 27.1454 63.2117 27.315 63.4723C27.4846 63.7246 27.7245 63.919 28.0017 64.0431C28.3781 64.1879 28.7794 64.2541 29.1847 64.2375C29.404 64.2417 29.6232 64.2334 29.8383 64.2044C30.041 64.1879 30.2396 64.1589 30.4381 64.1176V62.5043C30.2437 62.5912 30.0369 62.6325 29.8259 62.6325C29.0689 62.6325 28.6925 62.2395 28.6925 61.466ZM26.7565 58.1484C26.7772 59.5425 26.1691 60.8745 25.1019 61.7762C24.5848 62.2147 23.985 62.5457 23.3397 62.7566C22.6572 62.9841 21.9457 63.0958 21.2259 63.0958C20.7791 63.0958 20.3324 63.0214 19.9104 62.8766C19.4926 62.7484 19.1038 62.5415 18.7646 62.2685C18.4502 61.9955 18.1896 61.6604 18.0035 61.2881C17.8008 60.8827 17.7015 60.436 17.7098 59.981C17.6725 59.3191 17.9207 58.6697 18.3964 58.2064C18.9052 57.7596 19.5092 57.4328 20.1586 57.2425C20.9322 57.0026 21.7264 56.833 22.5331 56.7337C23.4142 56.6055 24.2539 56.4648 25.0605 56.32C25.3708 56.2704 25.6769 56.196 25.9789 56.1049C26.2684 56.0429 26.5208 55.8692 26.6821 55.6168L26.7565 55.6375V58.1484ZM43.3857 56.7296C43.3857 57.5197 43.2947 58.3056 43.1086 59.0709C42.9431 59.7948 42.6536 60.4856 42.2482 61.1061C41.8759 61.6852 41.3754 62.1734 40.7838 62.5291C40.1302 62.9055 39.3898 63.0917 38.6369 63.071C37.1146 63.071 36.035 62.6822 35.4145 61.9665C34.794 61.2509 34.4589 60.1671 34.4176 58.74V48.4522H32.4982V58.711C32.4858 59.559 32.5892 60.4029 32.8043 61.2219C32.9904 61.9003 33.3214 62.5291 33.7764 63.0627C34.2438 63.5881 34.8354 63.9935 35.4931 64.2375C36.3121 64.5312 37.1808 64.6719 38.0495 64.6512C39.1788 64.6636 40.2916 64.3782 41.2719 63.8239C42.2399 63.2613 43.0135 62.4174 43.4892 61.404H43.5512V64.2499H45.3134V48.4563H43.3857V56.7296ZM53.0985 49.1844C52.0396 49.9124 51.237 50.959 50.811 52.1752H50.7489V48.4522H48.9619V64.2499H50.9227V55.8319C50.9103 55.0418 51.0509 54.2559 51.3363 53.5196C51.8865 52.1297 52.9992 51.0376 54.4016 50.5205C55.1627 50.2351 55.9776 50.1151 56.7884 50.1689V48.2371C55.4895 48.142 54.1906 48.477 53.0985 49.1844ZM70.6212 61.4619V53.0687C70.6543 52.1793 70.4765 51.2941 70.1042 50.4833C69.7898 49.8628 69.3265 49.3333 68.7515 48.9403C68.1889 48.5639 67.5519 48.3074 66.8859 48.1875C66.2033 48.0551 65.5125 47.9889 64.8176 47.9889C63.9696 47.9806 63.1257 48.084 62.3066 48.295C61.5951 48.4812 60.925 48.8038 60.3335 49.2464C59.7668 49.6849 59.3076 50.2516 59.0015 50.9011V50.9176C58.6623 51.6705 58.4637 52.4771 58.4224 53.3045H60.3542C60.379 52.0056 60.7844 51.0624 61.562 50.4833C62.439 49.8711 63.4939 49.565 64.5611 49.6105C65.103 49.6105 65.6408 49.656 66.1744 49.7511C66.6418 49.8297 67.0886 49.9993 67.4898 50.2516C67.8704 50.4998 68.1765 50.8432 68.3792 51.2486C68.6108 51.7532 68.7225 52.3075 68.7019 52.8618C68.7143 53.2176 68.6563 53.5692 68.5322 53.9001C68.433 54.1483 68.2675 54.3676 68.0565 54.5289C67.829 54.6902 67.5684 54.8019 67.2954 54.8516C66.9852 54.9136 66.6335 54.9632 66.2199 55.0046C65.1775 55.1246 64.1557 55.2569 63.1422 55.3893C62.2074 55.501 61.2932 55.7327 60.4162 56.076C59.6551 56.3697 58.9849 56.8619 58.4761 57.499C57.9384 58.256 57.6819 59.1702 57.7398 60.0968C57.7233 60.8083 57.8639 61.5156 58.1535 62.1651C58.4141 62.7235 58.8029 63.2158 59.2869 63.6005C59.7874 63.9811 60.3583 64.2582 60.9705 64.4071C61.6448 64.585 62.3397 64.676 63.0388 64.6719C63.7172 64.6843 64.3956 64.6098 65.0534 64.4526C65.5787 64.3244 66.0834 64.1176 66.5508 63.8404C67.0017 63.5715 67.4112 63.2365 67.7628 62.8435C68.1434 62.4133 68.495 61.9583 68.8177 61.4826H68.8466C68.8466 61.859 68.8715 62.2313 68.9211 62.6036C68.9625 62.9138 69.0741 63.2117 69.2437 63.4723C69.4133 63.7246 69.6533 63.9232 69.9346 64.0431C70.3069 64.1879 70.7081 64.2541 71.1094 64.2375C71.3286 64.2417 71.5478 64.2334 71.7671 64.2044C71.9698 64.1879 72.1683 64.1589 72.3669 64.1176V62.5002C72.1725 62.587 71.9656 62.6284 71.7547 62.6284C70.9977 62.6284 70.6212 62.2354 70.6212 61.4619ZM68.7556 58.1484C68.7763 59.5425 68.1682 60.8745 67.101 61.7762C66.5798 62.2106 65.9841 62.5457 65.3388 62.7566C64.6562 62.98 63.9447 63.0958 63.2291 63.0917C62.7782 63.0917 62.3356 63.0214 61.9095 62.8766C61.5 62.7442 61.1194 62.5415 60.7885 62.2685C60.4658 61.9955 60.2011 61.6646 60.0067 61.2881C59.8081 60.8827 59.7088 60.4319 59.7171 59.981C59.6758 59.3191 59.9239 58.6738 60.3955 58.2064C60.9043 57.7596 61.5041 57.4287 62.1536 57.2425C62.9271 57.0026 63.7214 56.833 64.528 56.7337C65.3967 56.5931 66.2447 56.4648 67.0513 56.32C67.3616 56.2704 67.6677 56.2001 67.9697 56.1049C68.2634 56.0429 68.5157 55.8692 68.677 55.6168L68.7556 55.6375V58.1484ZM95.8505 52.6964V52.6343C96.4007 52.5185 96.926 52.2993 97.3976 51.989C98.3242 51.3727 99.0191 50.4626 99.3666 49.4036C99.8258 48.0096 99.7141 46.4956 99.0646 45.1801C98.6923 44.51 98.1628 43.9433 97.5175 43.5255C96.835 43.0911 96.078 42.7892 95.2838 42.6361C94.4109 42.4624 93.5216 42.3755 92.6322 42.3796H83.3868V64.2169H92.6074C93.6332 64.2375 94.6591 64.13 95.6561 63.8942C96.4048 63.7246 97.1245 63.4557 97.7988 63.0917C98.3366 62.7939 98.8123 62.3926 99.1929 61.9086C99.5279 61.4991 99.7968 61.0399 99.9995 60.5518C100.177 60.1175 100.301 59.6666 100.372 59.2033C100.426 58.8144 100.455 58.4173 100.459 58.0243C100.504 56.713 100.062 55.4307 99.2177 54.4255C98.3573 53.441 97.1535 52.8246 95.8505 52.6964ZM85.4717 44.117H92.6322C95.9208 44.1212 97.5672 45.4904 97.5672 48.2206C97.5672 48.7169 97.4638 49.2092 97.2569 49.6642C97.046 50.1234 96.7316 50.5247 96.3386 50.839C95.8877 51.2155 95.3665 51.4968 94.808 51.6664C94.1007 51.8773 93.3685 51.9766 92.6322 51.9601L85.4717 51.9311V44.117ZM97.9146 60.1506C97.6334 60.7173 97.2031 61.1971 96.6737 61.5446C96.1152 61.9045 95.4906 62.1485 94.837 62.2644C94.109 62.3967 93.3726 62.4671 92.6322 62.4629H85.4717V53.7347H92.6198C94.4771 53.7347 95.9043 54.0987 96.8929 54.7895C97.8816 55.4803 98.378 56.5517 98.378 57.9623C98.4069 58.7193 98.2497 59.4722 97.9146 60.1506ZM103.474 64.2499H105.402V48.4522H103.474V64.2499ZM103.474 45.4821H105.402V42.3755H103.474V45.4821ZM121.121 61.4619V53.0687C121.158 52.1793 120.98 51.2899 120.604 50.4833C120.294 49.8628 119.83 49.3292 119.255 48.9403C118.693 48.5639 118.056 48.3074 117.39 48.1875C116.707 48.0551 116.016 47.9889 115.322 47.9889C114.474 47.9806 113.63 48.084 112.811 48.295C112.099 48.4812 111.429 48.8038 110.837 49.2464C110.267 49.6849 109.812 50.2516 109.501 50.9011L109.522 50.9176C109.179 51.6705 108.98 52.4771 108.943 53.3045H110.846C110.879 52.0056 111.28 51.0624 112.054 50.4833C112.931 49.8711 113.985 49.565 115.057 49.6146C115.599 49.6105 116.136 49.656 116.67 49.7511C117.138 49.8297 117.584 49.9993 117.986 50.2516C118.362 50.504 118.668 50.8473 118.875 51.2486C119.107 51.7532 119.218 52.3075 119.198 52.8618C119.21 53.2176 119.152 53.5692 119.028 53.9001C118.92 54.1566 118.747 54.3758 118.523 54.5372C118.296 54.6985 118.035 54.8102 117.758 54.8598C117.452 54.9219 117.1 54.9715 116.687 55.0129C115.644 55.137 114.618 55.2652 113.609 55.3976C112.674 55.5093 111.76 55.7409 110.883 56.0843C110.122 56.3821 109.452 56.8702 108.939 57.5073C108.409 58.2643 108.153 59.1743 108.207 60.0968C108.19 60.8083 108.331 61.5156 108.62 62.1651C108.885 62.7235 109.274 63.2158 109.758 63.6005C110.258 63.9811 110.829 64.2582 111.437 64.4071C112.112 64.585 112.806 64.6719 113.506 64.6719C114.184 64.6802 114.858 64.6098 115.52 64.4526C116.045 64.3244 116.55 64.1176 117.018 63.8404C117.468 63.5715 117.878 63.2365 118.23 62.8435C118.614 62.4174 118.966 61.9624 119.284 61.4826H119.351C119.351 61.859 119.371 62.2313 119.425 62.6036C119.466 62.9138 119.578 63.2117 119.748 63.4723C119.917 63.7246 120.157 63.9232 120.439 64.0431C120.811 64.1879 121.212 64.2541 121.613 64.2375C121.833 64.2417 122.052 64.2334 122.271 64.2044C122.47 64.1879 122.668 64.1589 122.867 64.1176V62.5002C122.672 62.587 122.465 62.6284 122.255 62.6284C121.502 62.6284 121.121 62.2354 121.121 61.4619ZM119.231 58.165C119.251 59.559 118.643 60.891 117.576 61.7928C117.059 62.2313 116.459 62.5622 115.814 62.7732C115.135 63.0007 114.42 63.1124 113.704 63.1082C113.257 63.1082 112.811 63.0379 112.389 62.8931C111.975 62.7608 111.586 62.5457 111.251 62.2685C110.933 61.9955 110.668 61.6604 110.473 61.2881C110.275 60.8827 110.176 60.4319 110.184 59.981C110.147 59.3191 110.395 58.6738 110.866 58.2064C111.379 57.7596 111.979 57.4287 112.633 57.2425C113.406 57.0026 114.196 56.833 114.999 56.7337C115.872 56.5972 116.72 56.4648 117.526 56.32C117.837 56.2704 118.143 56.2001 118.445 56.1049C118.738 56.0429 118.991 55.8692 119.152 55.6168L119.231 55.6541V58.165ZM136.41 51.1658H136.348C136.154 50.7232 135.889 50.3137 135.566 49.9538C135.231 49.5732 134.851 49.234 134.429 48.9486C133.99 48.6466 133.51 48.415 133.006 48.2578C132.468 48.0923 131.914 48.0096 131.351 48.0137C130.3 47.993 129.262 48.2081 128.306 48.6425C127.442 49.0396 126.681 49.6229 126.073 50.355C125.452 51.1038 124.985 51.9683 124.695 52.8991C124.372 53.8919 124.211 54.9301 124.219 55.9726C124.219 57.044 124.356 58.1112 124.633 59.1454C124.873 60.0844 125.303 60.9655 125.903 61.7307C126.495 62.4753 127.256 63.0669 128.124 63.4557C129.146 63.9025 130.255 64.1176 131.367 64.0845C132.451 64.1093 133.514 63.7991 134.416 63.1992C135.281 62.6118 135.963 61.7969 136.389 60.8414H136.451V62.9841C136.439 64.9035 136.038 66.372 135.243 67.3938C134.449 68.4155 133.15 68.9243 131.351 68.9243C130.826 68.9243 130.304 68.8706 129.791 68.7589C129.303 68.6513 128.832 68.4693 128.397 68.2211C127.98 67.9729 127.616 67.6461 127.326 67.2573C127.012 66.8147 126.809 66.3058 126.73 65.7722H124.786C124.827 66.5375 125.063 67.2821 125.477 67.9274C125.866 68.5231 126.379 69.0277 126.979 69.4124C127.603 69.8096 128.29 70.0991 129.014 70.2687C129.775 70.4549 130.557 70.55 131.339 70.5459C132.447 70.5748 133.552 70.4011 134.598 70.0247C135.434 69.7144 136.178 69.1973 136.762 68.5231C137.337 67.824 137.75 67.0091 137.97 66.1321L137.957 66.099C138.222 65.069 138.35 64.0142 138.342 62.951V48.4398H136.41V51.1658ZM136.1 58.4876C135.901 59.2115 135.574 59.8941 135.132 60.5022C134.706 61.0772 134.164 61.557 133.539 61.9086V61.9252C132.861 62.2933 132.1 62.4753 131.33 62.4629C130.524 62.4795 129.725 62.2975 129.005 61.9252C128.373 61.5818 127.818 61.102 127.392 60.5187C126.954 59.9106 126.635 59.2281 126.445 58.5042C126.238 57.743 126.135 56.9612 126.135 56.1753C126.135 55.3604 126.234 54.5454 126.432 53.7553C126.61 53.0025 126.925 52.291 127.367 51.6581C127.789 51.05 128.339 50.5453 128.977 50.173C129.7 49.7801 130.511 49.5856 131.334 49.6105C132.153 49.5815 132.964 49.7842 133.676 50.1896C134.313 50.5702 134.855 51.0955 135.256 51.7201C135.67 52.3696 135.972 53.0852 136.145 53.8339C136.323 54.5951 136.414 55.3769 136.418 56.1587C136.418 56.9447 136.311 57.7306 136.1 58.4876ZM142.036 64.2499H143.968V48.4522H142.036V64.2499ZM142.036 45.5028H143.968V42.3962H142.036V45.5028ZM159.923 50.4709C159.281 49.7097 158.483 49.0934 157.581 48.6673H157.561C155.521 47.7655 153.201 47.7655 151.161 48.6632C150.259 49.0892 149.461 49.7056 148.82 50.4667C148.179 51.2527 147.699 52.1545 147.401 53.1224C146.747 55.2238 146.747 57.47 147.401 59.5714C147.703 60.5394 148.195 61.437 148.841 62.2189C149.482 62.98 150.28 63.5881 151.182 64.01C153.225 64.8911 155.538 64.8911 157.581 64.01C158.483 63.5922 159.281 62.98 159.923 62.2189C160.572 61.437 161.06 60.5394 161.362 59.5714C162.016 57.47 162.016 55.2238 161.362 53.1224C161.06 52.1545 160.572 51.2527 159.923 50.4709ZM159.571 58.8186C159.352 59.5921 159 60.3202 158.533 60.9737C158.073 61.6066 157.482 62.1279 156.799 62.5043C154.541 63.7287 151.72 63.071 150.235 60.9737C149.763 60.3243 149.411 59.5921 149.196 58.8186C148.721 57.2094 148.721 55.4927 149.196 53.8836C149.416 53.11 149.767 52.382 150.235 51.7284C150.69 51.0955 151.281 50.5743 151.964 50.1979C154.226 48.9776 157.043 49.6353 158.533 51.7284C159 52.382 159.352 53.11 159.571 53.8836C160.038 55.4969 160.038 57.2053 159.571 58.8186ZM167.766 43.7034H165.834V48.4646H163.083V50.0779H165.834V60.8455C165.813 62.194 166.061 63.1165 166.57 63.617C167.079 64.1176 167.981 64.3658 169.267 64.3658C169.553 64.3699 169.838 64.3658 170.123 64.341C170.409 64.312 170.694 64.3037 170.98 64.3079V62.6946C170.43 62.7566 169.879 62.7856 169.325 62.7856C168.634 62.7484 168.196 62.5498 168.022 62.1899C167.832 61.7183 167.741 61.2137 167.766 60.7049V50.0531H170.992V48.4522H167.766V43.7034ZM176.825 43.7034H174.901V48.4646H172.142V50.0779H174.901V60.8455C174.876 62.194 175.125 63.1165 175.633 63.617C176.142 64.1176 177.044 64.3658 178.331 64.3658C178.616 64.374 178.901 64.3658 179.187 64.341C179.472 64.312 179.758 64.3037 180.043 64.3079V62.6946C179.493 62.7566 178.943 62.7856 178.388 62.7856C177.698 62.7484 177.263 62.5498 177.09 62.1899C176.891 61.7225 176.804 61.2137 176.825 60.7049V50.0531H180.051V48.4522H176.825V43.7034ZM182.868 42.3755V45.4821H184.796V42.3755H182.868ZM182.868 64.2499H184.796V48.4522H182.868V64.2499Z" fill="#1B1B1B"/>
</g>
<defs>
<clipPath id="clip0_26_602">
<rect width="184.233" height="70.55" fill="white" transform="translate(0.563477)"/>
</clipPath>
</defs>
</svg>
