<svg viewBox="0 0 185 29" fill="none" xmlns="http://www.w3.org/2000/svg"><path d="M2.08072 0.391544H0V22.2494H14.3334V20.4748H2.08072V0.391544ZM28.129 19.4655V11.0723C28.1497 10.1788 27.9594 9.28941 27.5706 8.48277C27.2603 7.86228 26.797 7.33279 26.2262 6.93981C25.6594 6.56751 25.0265 6.31104 24.3605 6.18694C23.678 6.05457 22.9872 5.98839 22.2922 5.98839C21.4442 5.98011 20.6004 6.07939 19.7813 6.2945C19.0657 6.48065 18.3955 6.8033 17.804 7.24592C17.2373 7.6844 16.7781 8.25112 16.472 8.90057V8.91298C16.1245 9.66171 15.9301 10.4725 15.8929 11.2998H17.8536C17.8826 10.0009 18.2839 9.05776 19.0615 8.47863C19.9385 7.86641 20.9933 7.5603 22.0606 7.60994C22.6025 7.60581 23.1402 7.65131 23.6739 7.74645C24.1413 7.82505 24.5881 7.99465 24.9893 8.24698C25.3657 8.49518 25.6677 8.83438 25.8745 9.23149C26.1062 9.73616 26.2179 10.2905 26.1972 10.8448C26.2055 11.2005 26.1393 11.5563 26.0111 11.8913C25.9118 12.1395 25.7504 12.3588 25.5353 12.5201C25.3078 12.6814 25.0472 12.7931 24.7701 12.8428C24.464 12.9048 24.1123 12.9544 23.6987 12.9958C22.6397 13.1158 21.6304 13.2482 20.6252 13.3805C19.6903 13.4922 18.772 13.7239 17.895 14.0672C17.1256 14.365 16.4513 14.8573 15.9343 15.4985C15.3965 16.2555 15.1276 17.1697 15.1773 18.0963C15.1607 18.8078 15.3013 19.5151 15.5909 20.1646C15.8515 20.723 16.2362 21.2153 16.7202 21.6C17.2249 21.9806 17.7957 22.2536 18.408 22.4066C19.0822 22.5845 19.7772 22.6714 20.4763 22.6714C21.1547 22.6796 21.8331 22.6093 22.4949 22.4521C23.0203 22.3239 23.5249 22.1171 23.9924 21.8399C24.4557 21.5752 24.8735 21.2401 25.2334 20.843C25.6181 20.4169 25.9738 19.9619 26.2923 19.482H26.3544C26.3544 19.8585 26.3792 20.2308 26.433 20.6031C26.4702 20.9133 26.5819 21.2111 26.7515 21.4717C26.9211 21.7241 27.161 21.9185 27.4382 22.0426C27.8146 22.1874 28.2159 22.2536 28.6213 22.237C28.8405 22.2412 29.0597 22.2329 29.2748 22.2039C29.4775 22.1874 29.6761 22.1584 29.8747 22.1171V20.5038C29.6802 20.5906 29.4734 20.632 29.2624 20.632C28.5054 20.632 28.129 20.239 28.129 19.4655ZM26.1931 16.1479C26.2137 17.542 25.6057 18.874 24.5384 19.7757C24.0213 20.2142 23.4215 20.5451 22.7762 20.7561C22.0937 20.9836 21.3822 21.0953 20.6624 21.0953C20.2157 21.0953 19.7689 21.0209 19.347 20.8761C18.9292 20.7478 18.5403 20.541 18.2011 20.268C17.8867 19.995 17.6261 19.6599 17.44 19.2876C17.2373 18.8822 17.138 18.4355 17.1463 17.9804C17.1091 17.3186 17.3572 16.6691 17.833 16.2058C18.3418 15.7591 18.9457 15.4323 19.5952 15.242C20.3687 15.0021 21.1629 14.8325 21.9696 14.7332C22.8507 14.605 23.6904 14.4643 24.4971 14.3195C24.8073 14.2699 25.1134 14.1954 25.4154 14.1044C25.7049 14.0424 25.9573 13.8686 26.1186 13.6163L26.1931 13.637V16.1479ZM42.8223 14.7291C42.8223 15.5192 42.7313 16.3051 42.5451 17.0704C42.3797 17.7943 42.0901 18.4851 41.6847 19.1056C41.3124 19.6847 40.8119 20.1729 40.2203 20.5286C39.5668 20.905 38.8263 21.0912 38.0734 21.0705C36.5512 21.0705 35.4715 20.6817 34.851 19.966C34.2305 19.2504 33.8954 18.1666 33.8541 16.7395V6.45169H31.9347V16.7105C31.9223 17.5585 32.0257 18.4024 32.2408 19.2214C32.427 19.8998 32.7579 20.5286 33.2129 21.0622C33.6803 21.5876 34.2719 21.993 34.9296 22.237C35.7487 22.5307 36.6173 22.6714 37.486 22.6507C38.6153 22.6631 39.7281 22.3777 40.7085 21.8234C41.6764 21.2608 42.45 20.4169 42.9257 19.4034H42.9877V22.2494H44.7499V6.45583H42.8223V14.7291ZM52.535 7.18387C51.4761 7.91192 50.6736 8.95848 50.2475 10.1746H50.1855V6.45169H48.3984V22.2494H50.3592V13.8314C50.3468 13.0413 50.4874 12.2554 50.7729 11.519C51.323 10.1291 52.4358 9.03707 53.8381 8.52C54.5992 8.23457 55.4141 8.11461 56.2249 8.16838V6.23658C54.926 6.14144 53.6271 6.47651 52.535 7.18387ZM70.0578 19.4614V11.0682C70.0909 10.1788 69.913 9.29355 69.5407 8.48277C69.2263 7.86228 68.763 7.33279 68.188 6.93981C67.6254 6.56338 66.9884 6.3069 66.3224 6.18694C65.6399 6.05457 64.949 5.98839 64.2541 5.98839C63.4061 5.98011 62.5622 6.08353 61.7432 6.2945C61.0317 6.48065 60.3615 6.8033 59.77 7.24592C59.2033 7.6844 58.7441 8.25112 58.438 8.90057V8.91711C58.0988 9.66997 57.9002 10.4766 57.8589 11.3039H59.7907C59.8155 10.005 60.2209 9.0619 60.9986 8.48277C61.8755 7.87055 62.9304 7.56444 63.9976 7.60994C64.5395 7.60994 65.0773 7.65545 65.6109 7.75059C66.0783 7.82918 66.5251 7.99878 66.9263 8.25112C67.3069 8.49931 67.613 8.84265 67.8157 9.24804C68.0474 9.75271 68.1591 10.307 68.1384 10.8613C68.1508 11.2171 68.0929 11.5687 67.9688 11.8996C67.8695 12.1478 67.704 12.3671 67.4931 12.5284C67.2656 12.6897 67.0049 12.8014 66.7319 12.851C66.4217 12.9131 66.0701 12.9627 65.6564 13.0041C64.614 13.1241 63.5922 13.2564 62.5788 13.3888C61.6439 13.5005 60.7297 13.7321 59.8527 14.0755C59.0916 14.3692 58.4215 14.8614 57.9127 15.4985C57.3749 16.2555 57.1184 17.1697 57.1763 18.0963C57.1598 18.8078 57.3004 19.5151 57.59 20.1646C57.8506 20.723 58.2395 21.2153 58.7234 21.6C59.224 21.9806 59.7948 22.2577 60.407 22.4066C61.0813 22.5845 61.7763 22.6755 62.4753 22.6714C63.1537 22.6838 63.8322 22.6093 64.4899 22.4521C65.0152 22.3239 65.5199 22.1171 65.9873 21.8399C66.4382 21.571 66.8477 21.236 67.1994 20.843C67.5799 20.4128 67.9315 19.9577 68.2542 19.482H68.2832C68.2832 19.8585 68.308 20.2308 68.3576 20.6031C68.399 20.9133 68.5107 21.2111 68.6803 21.4717C68.8499 21.7241 69.0898 21.9226 69.3711 22.0426C69.7434 22.1874 70.1446 22.2536 70.5459 22.237C70.7651 22.2412 70.9844 22.2329 71.2036 22.2039C71.4063 22.1874 71.6049 22.1584 71.8034 22.1171V20.4996C71.609 20.5865 71.4022 20.6279 71.1912 20.6279C70.4342 20.6279 70.0578 20.2349 70.0578 19.4614ZM68.1922 16.1479C68.2128 17.542 67.6048 18.874 66.5375 19.7757C66.0163 20.2101 65.4206 20.5451 64.7753 20.7561C64.0928 20.9795 63.3813 21.0953 62.6656 21.0912C62.2147 21.0912 61.7721 21.0209 61.346 20.8761C60.9365 20.7437 60.556 20.541 60.225 20.268C59.9024 19.995 59.6376 19.664 59.4432 19.2876C59.2446 18.8822 59.1454 18.4313 59.1536 17.9804C59.1123 17.3186 59.3605 16.6733 59.832 16.2058C60.3408 15.7591 60.9407 15.4282 61.5901 15.242C62.3637 15.0021 63.1579 14.8325 63.9645 14.7332C64.8332 14.5926 65.6812 14.4643 66.4879 14.3195C66.7981 14.2699 67.1042 14.1996 67.4062 14.1044C67.6999 14.0424 67.9522 13.8686 68.1136 13.6163L68.1922 13.637V16.1479ZM95.287 10.6959V10.6338C95.8372 10.518 96.3625 10.2987 96.8341 9.9885C97.7607 9.37214 98.4556 8.46208 98.8031 7.40311C99.2623 6.00907 99.1506 4.49507 98.5011 3.17963C98.1288 2.50949 97.5994 1.94278 96.9541 1.52498C96.2715 1.09063 95.5145 0.78866 94.7203 0.635605C93.8474 0.461867 92.9581 0.374995 92.0687 0.379131H82.8234V22.2163H92.0439C93.0698 22.237 94.0957 22.1295 95.0926 21.8937C95.8413 21.7241 96.5611 21.4552 97.2353 21.0912C97.7731 20.7933 98.2488 20.3921 98.6294 19.9081C98.9644 19.4986 99.2333 19.0394 99.436 18.5513C99.6139 18.117 99.738 17.6661 99.8083 17.2028C99.8621 16.8139 99.8911 16.4168 99.8952 16.0238C99.9407 14.7125 99.4981 13.4302 98.6542 12.425C97.7938 11.4405 96.59 10.8241 95.287 10.6959ZM84.9082 2.11652H92.0687C95.3573 2.12065 97.0037 3.48987 97.0037 6.22004C97.0037 6.71643 96.9003 7.20869 96.6935 7.66372C96.4825 8.12288 96.1681 8.52414 95.7751 8.83852C95.3242 9.21495 94.803 9.49624 94.2446 9.66584C93.5372 9.87681 92.805 9.97609 92.0687 9.95954L84.9082 9.93058V2.11652ZM97.3512 18.15C97.0699 18.7168 96.6397 19.1966 96.1102 19.5441C95.5517 19.904 94.9271 20.148 94.2735 20.2639C93.5455 20.3962 92.8092 20.4666 92.0687 20.4624H84.9082V11.7341H92.0563C93.9136 11.7341 95.3408 12.0982 96.3294 12.789C97.3181 13.4798 97.8145 14.5512 97.8145 15.9618C97.8434 16.7188 97.6862 17.4716 97.3512 18.15ZM102.911 22.2494H104.838V6.45169H102.911V22.2494ZM102.911 3.4816H104.838V0.375H102.911V3.4816ZM120.558 19.4614V11.0682C120.595 10.1788 120.417 9.28941 120.041 8.48277C119.73 7.86228 119.267 7.32865 118.692 6.93981C118.129 6.56338 117.492 6.3069 116.826 6.18694C116.144 6.05457 115.453 5.98839 114.758 5.98839C113.91 5.98011 113.066 6.08353 112.247 6.2945C111.536 6.48065 110.865 6.8033 110.274 7.24592C109.703 7.6844 109.248 8.25112 108.938 8.90057L108.959 8.91711C108.615 9.66997 108.417 10.4766 108.379 11.3039H110.282C110.315 10.005 110.717 9.0619 111.49 8.48277C112.367 7.87055 113.422 7.56444 114.493 7.61408C115.035 7.60994 115.573 7.65545 116.107 7.75059C116.574 7.82918 117.021 7.99878 117.422 8.25112C117.798 8.50345 118.105 8.84679 118.311 9.24804C118.543 9.75271 118.655 10.307 118.634 10.8613C118.646 11.2171 118.589 11.5687 118.464 11.8996C118.357 12.1561 118.183 12.3753 117.96 12.5367C117.732 12.698 117.472 12.8097 117.195 12.8593C116.888 12.9214 116.537 12.971 116.123 13.0124C115.081 13.1365 114.055 13.2647 113.046 13.3971C112.111 13.5088 111.196 13.7404 110.319 14.0837C109.558 14.3816 108.888 14.8697 108.375 15.5067C107.846 16.2637 107.589 17.1738 107.643 18.0963C107.627 18.8078 107.767 19.5151 108.057 20.1646C108.321 20.723 108.71 21.2153 109.194 21.6C109.695 21.9806 110.266 22.2577 110.874 22.4066C111.548 22.5845 112.243 22.6714 112.942 22.6714C113.62 22.6796 114.295 22.6093 114.957 22.4521C115.482 22.3239 115.987 22.1171 116.454 21.8399C116.905 21.571 117.314 21.236 117.666 20.843C118.051 20.4169 118.402 19.9619 118.721 19.482H118.787C118.787 19.8585 118.808 20.2308 118.862 20.6031C118.903 20.9133 119.015 21.2111 119.184 21.4717C119.354 21.7241 119.594 21.9226 119.875 22.0426C120.247 22.1874 120.649 22.2536 121.05 22.237C121.269 22.2412 121.488 22.2329 121.708 22.2039C121.906 22.1874 122.105 22.1584 122.303 22.1171V20.4996C122.109 20.5865 121.902 20.6279 121.691 20.6279C120.938 20.6279 120.558 20.2349 120.558 19.4614ZM118.667 16.1645C118.688 17.5585 118.08 18.8905 117.013 19.7923C116.495 20.2308 115.896 20.5617 115.25 20.7727C114.572 21.0002 113.856 21.1119 113.141 21.1077C112.694 21.1077 112.247 21.0374 111.825 20.8926C111.412 20.7602 111.023 20.5451 110.688 20.268C110.369 19.995 110.104 19.6599 109.91 19.2876C109.711 18.8822 109.612 18.4313 109.62 17.9804C109.583 17.3186 109.831 16.6733 110.303 16.2058C110.816 15.7591 111.416 15.4282 112.069 15.242C112.843 15.0021 113.633 14.8325 114.435 14.7332C115.308 14.5967 116.156 14.4643 116.963 14.3195C117.273 14.2699 117.579 14.1996 117.881 14.1044C118.175 14.0424 118.427 13.8686 118.589 13.6163L118.667 13.6535V16.1645ZM135.847 9.16531H135.784C135.59 8.72269 135.325 8.31317 135.003 7.95328C134.668 7.57271 134.287 7.23351 133.865 6.94809C133.427 6.64611 132.947 6.41446 132.442 6.25727C131.904 6.09181 131.35 6.00907 130.787 6.01321C129.737 5.99252 128.698 6.20763 127.743 6.64197C126.878 7.03909 126.117 7.62235 125.509 8.35453C124.889 9.10326 124.421 9.96781 124.132 10.8986C123.809 11.8913 123.648 12.9296 123.656 13.9721C123.656 15.0434 123.792 16.1107 124.07 17.1448C124.31 18.0839 124.74 18.965 125.34 19.7302C125.931 20.4748 126.692 21.0664 127.561 21.4552C128.583 21.902 129.691 22.1171 130.804 22.084C131.888 22.1088 132.951 21.7985 133.853 21.1987C134.717 20.6113 135.4 19.7964 135.826 18.8409H135.888V20.9836C135.875 22.903 135.474 24.3715 134.68 25.3933C133.886 26.415 132.587 26.9238 130.787 26.9238C130.262 26.9238 129.741 26.87 129.228 26.7583C128.74 26.6508 128.268 26.4688 127.834 26.2206C127.416 25.9724 127.052 25.6456 126.763 25.2567C126.448 24.8141 126.245 24.3053 126.167 23.7717H124.223C124.264 24.537 124.5 25.2816 124.913 25.9269C125.302 26.5226 125.815 27.0272 126.415 27.4119C127.04 27.809 127.726 28.0986 128.45 28.2682C129.211 28.4544 129.993 28.5495 130.775 28.5454C131.884 28.5743 132.988 28.4006 134.035 28.0242C134.87 27.7139 135.615 27.1968 136.198 26.5226C136.773 25.8235 137.187 25.0086 137.406 24.1316L137.394 24.0985C137.658 23.0685 137.787 22.0136 137.778 20.9505V6.43928H135.847V9.16531ZM135.536 16.4871C135.338 17.211 135.011 17.8936 134.568 18.5017C134.142 19.0766 133.6 19.5565 132.976 19.9081V19.9247C132.297 20.2928 131.536 20.4748 130.767 20.4624C129.96 20.479 129.162 20.2969 128.442 19.9247C127.809 19.5813 127.255 19.1015 126.829 18.5182C126.39 17.9101 126.072 17.2276 125.881 16.5037C125.675 15.7425 125.571 14.9607 125.571 14.1748C125.571 13.3598 125.67 12.5449 125.869 11.7548C126.047 11.002 126.361 10.2905 126.804 9.65757C127.226 9.04948 127.776 8.54482 128.413 8.17252C129.137 7.77954 129.948 7.58512 130.771 7.60994C131.59 7.58099 132.401 7.78368 133.112 8.18907C133.749 8.56964 134.291 9.09499 134.692 9.71962C135.106 10.3691 135.408 11.0847 135.582 11.8334C135.76 12.5946 135.851 13.3764 135.855 14.1582C135.855 14.9442 135.747 15.7301 135.536 16.4871ZM141.472 22.2494H143.404V6.45169H141.472V22.2494ZM141.472 3.50228H143.404V0.395679H141.472V3.50228ZM159.359 8.47036C158.718 7.70922 157.92 7.09287 157.018 6.66679H156.997C154.958 5.76501 152.637 5.76501 150.598 6.66265C149.696 7.08873 148.898 7.70508 148.256 8.46622C147.615 9.25218 147.135 10.154 146.838 11.1219C146.184 13.2233 146.184 15.4695 146.838 17.5709C147.14 18.5389 147.632 19.4365 148.277 20.2184C148.918 20.9795 149.717 21.5876 150.618 22.0095C152.662 22.8906 154.974 22.8906 157.018 22.0095C157.92 21.5917 158.718 20.9795 159.359 20.2184C160.009 19.4365 160.497 18.5389 160.799 17.5709C161.452 15.4695 161.452 13.2233 160.799 11.1219C160.497 10.154 160.009 9.25218 159.359 8.47036ZM159.007 16.8181C158.788 17.5916 158.437 18.3196 157.969 18.9732C157.51 19.6061 156.918 20.1273 156.236 20.5038C153.977 21.7282 151.156 21.0705 149.671 18.9732C149.2 18.3238 148.848 17.5916 148.633 16.8181C148.157 15.2089 148.157 13.4922 148.633 11.8831C148.852 11.1095 149.204 10.3815 149.671 9.72789C150.126 9.09499 150.718 8.57377 151.4 8.19734C153.663 6.97704 156.48 7.63476 157.969 9.72789C158.437 10.3815 158.788 11.1095 159.007 11.8831C159.475 13.4963 159.475 15.2048 159.007 16.8181ZM167.202 1.70285H165.27V6.4641H162.519V8.07738H165.27V18.845C165.25 20.1935 165.498 21.116 166.007 21.6165C166.515 22.1171 167.417 22.3653 168.704 22.3653C168.989 22.3694 169.275 22.3653 169.56 22.3404C169.845 22.3115 170.131 22.3032 170.416 22.3073V20.6941C169.866 20.7561 169.316 20.7851 168.762 20.7851C168.071 20.7478 167.632 20.5493 167.459 20.1894C167.268 19.7178 167.177 19.2132 167.202 18.7043V8.05256H170.429V6.45169H167.202V1.70285ZM176.261 1.70285H174.338V6.4641H171.579V8.07738H174.338V18.845C174.313 20.1935 174.561 21.116 175.07 21.6165C175.579 22.1171 176.481 22.3653 177.767 22.3653C178.052 22.3735 178.338 22.3653 178.623 22.3404C178.909 22.3115 179.194 22.3032 179.48 22.3073V20.6941C178.929 20.7561 178.379 20.7851 177.825 20.7851C177.134 20.7478 176.7 20.5493 176.526 20.1894C176.327 19.722 176.241 19.2132 176.261 18.7043V8.05256H179.488V6.45169H176.261V1.70285ZM182.305 0.375V3.4816H184.233V0.375H182.305ZM182.305 22.2494H184.233V6.45169H182.305V22.2494Z" fill="#1B1B1B"></path></svg>